# Blender v2.75 (sub 0) OBJ File: ''
# www.blender.org
mtllib pineTree.mtl
o pineTree
v 0.101440 -0.000004 6.297233
v 0.071729 -0.071733 6.297233
v 0.320113 -0.359567 5.335888
v 0.359563 0.320109 5.335888
v 0.071729 0.071725 6.297233
v 0.000000 -0.101444 6.297233
v -0.071729 -0.071733 6.297233
v -0.359563 -0.320117 5.335888
v -0.101440 -0.000004 6.297233
v -0.071729 0.071725 6.297233
v -0.320113 0.359559 5.335888
v 0.000000 0.101436 6.297233
v -0.818487 -0.599846 3.695553
v -0.600571 -0.491327 4.523793
v -0.491324 0.600568 4.523793
v 0.000000 1.778906 1.075690
v 1.778906 -0.000000 1.075689
v 0.000000 -1.778906 1.075687
v -0.599844 0.818486 3.695554
v -1.048174 0.693160 2.872811
v -1.260744 1.260743 1.205988
v -1.265021 0.766534 2.048368
v 0.766535 1.265020 2.048368
v -1.778906 -0.000000 1.075689
v -1.260744 -1.260743 1.205987
v -1.034608 -1.034609 2.066772
v -0.693162 -1.048176 2.872810
v 0.000000 -1.415052 1.922457
v 0.599844 -0.818491 3.695554
v 0.491324 -0.600574 4.523793
v 1.260744 -1.260744 1.205987
v 1.034607 -1.034609 2.066771
v 1.048174 -0.693164 2.872810
v 1.415051 -0.000001 1.922457
v 0.818487 0.599840 3.695553
v 0.600571 0.491321 4.523793
v 1.260744 1.260744 1.205988
v 0.693162 1.048171 2.872811
v 0.256265 -0.000000 1.259172
v 0.185471 -0.185471 1.261418
v 0.192660 -0.192660 -0.038183
v 0.000000 -0.256265 1.259172
v -0.185471 -0.185471 1.261418
v -0.192660 -0.192660 -0.038183
v -0.256265 -0.000000 1.259172
v -0.192660 0.192660 -0.038183
v -0.185471 0.185471 1.261418
v 0.000000 0.256265 1.259172
v 0.185471 0.185471 1.261418
v 0.192660 0.192660 -0.038183
v 0.000000 -0.272463 -0.038183
v 0.272463 0.000000 -0.038183
v -0.272463 0.000000 -0.038183
v 0.000000 0.272463 -0.038183
vn 0.914900 -0.262900 0.306400
vn 0.871100 -0.360800 0.333100
vn 0.966200 -0.073500 0.247200
vn 0.864900 0.358300 0.351500
vn -0.262900 -0.914900 0.306400
vn -0.360800 -0.871100 0.333100
vn -0.073500 -0.966200 0.247200
vn 0.358300 -0.864900 0.351500
vn -0.914900 0.262900 0.306400
vn -0.871100 0.360800 0.333100
vn -0.966200 0.073500 0.247200
vn -0.864900 -0.358300 0.351500
vn 0.000000 0.000000 1.000000
vn -0.358300 0.864900 0.351500
vn -0.970300 0.119400 0.210200
vn -0.965600 0.096600 0.241400
vn -0.972400 0.132400 0.192200
vn 0.000000 0.058500 -0.998300
vn 0.058500 0.000000 -0.998300
vn 0.000000 -0.058500 -0.998300
vn -0.878500 0.135400 0.458100
vn -0.964900 0.079100 0.250400
vn -0.960300 0.055700 0.273200
vn -0.965000 0.079600 0.249800
vn -0.221500 0.805200 0.550100
vn -0.289600 0.826200 0.483200
vn -0.245900 0.813500 0.527000
vn -0.206400 0.956000 0.208700
vn -0.235700 0.960600 0.147500
vn -0.226200 0.959500 0.167600
vn -0.866700 -0.176700 0.466500
vn -0.887400 -0.331600 0.320200
vn -0.878800 -0.233600 0.416100
vn -0.924300 -0.167300 0.343000
vn -0.906100 -0.184700 0.380700
vn -0.949500 -0.138800 0.281600
vn -0.308100 -0.883900 0.351800
vn -0.288900 -0.904600 0.313500
vn -0.302200 -0.890500 0.340000
vn -0.119400 -0.970300 0.210200
vn -0.096600 -0.965600 0.241400
vn -0.132400 -0.972400 0.192200
vn -0.135400 -0.878500 0.458100
vn -0.079100 -0.964900 0.250400
vn -0.055700 -0.960300 0.273200
vn -0.079600 -0.965000 0.249800
vn 0.302200 -0.890500 0.340000
vn 0.288900 -0.904600 0.313500
vn 0.308100 -0.883900 0.351800
vn 0.206000 -0.875200 0.437600
vn 0.274400 -0.887100 0.371200
vn 0.226200 -0.879500 0.418700
vn 0.883900 -0.308100 0.351800
vn 0.904600 -0.288900 0.313500
vn 0.890500 -0.302200 0.340000
vn 0.970300 -0.119400 0.210200
vn 0.965600 -0.096600 0.241400
vn 0.972400 -0.132400 0.192200
vn 0.878500 -0.135400 0.458100
vn 0.964900 -0.079100 0.250400
vn 0.960300 -0.055700 0.273200
vn 0.965000 -0.079600 0.249800
vn 0.829100 0.349500 0.436400
vn 0.803700 0.365300 0.469700
vn 0.847100 0.337100 0.410800
vn 0.884700 0.256400 0.389200
vn 0.880900 0.432500 0.192200
vn 0.890800 0.335600 0.306500
vn 0.119400 0.970300 0.210200
vn 0.096600 0.965600 0.241400
vn 0.132400 0.972400 0.192200
vn 0.262900 0.914900 0.306400
vn 0.360800 0.871100 0.333100
vn 0.073500 0.966200 0.247200
vn 0.135400 0.878500 0.458100
vn 0.079100 0.964900 0.250400
vn 0.055700 0.960300 0.273200
vn 0.079600 0.965000 0.249800
vn -0.912800 0.354200 0.203200
vn -0.199600 0.979000 -0.040400
vn -0.979000 -0.199600 -0.040400
vn -0.327400 -0.936900 0.122900
vn 0.199600 -0.979000 -0.040400
vn 0.936900 -0.327400 0.122900
vn 0.979000 0.199600 -0.040400
vn 0.354200 0.912800 0.203200
vn 0.968800 -0.056200 0.241400
vn -0.056200 -0.968800 0.241400
vn -0.968800 0.056200 0.241400
vn -0.974400 0.150200 0.167200
vn -0.058500 0.000000 -0.998300
vn -0.170300 0.170300 -0.970600
vn -0.170300 -0.170300 -0.970600
vn 0.170300 -0.170300 -0.970600
vn 0.170300 0.170300 -0.970600
vn -0.967700 0.096800 0.232800
vn -0.195100 0.795300 0.574000
vn -0.194200 0.952800 0.233300
vn -0.843900 -0.102600 0.526700
vn -0.962600 -0.120700 0.242500
vn -0.319200 -0.870700 0.374100
vn -0.150200 -0.974400 0.167200
vn -0.096800 -0.967700 0.232800
vn 0.319200 -0.870700 0.374100
vn 0.176900 -0.867900 0.464100
vn 0.870700 -0.319200 0.374100
vn 0.974400 -0.150200 0.167200
vn 0.967700 -0.096800 0.232800
vn 0.870700 0.319200 0.374100
vn 0.867900 0.176900 0.464100
vn 0.150200 0.974400 0.167200
vn 0.056200 0.968800 0.241400
vn 0.096800 0.967700 0.232800
vn 0.933200 -0.359200 0.007600
vn 0.934300 -0.356500 0.007100
vn 0.924900 -0.380100 0.011100
vn 0.380100 -0.924900 0.011100
vn 0.356500 -0.934300 0.007100
vn 0.359200 -0.933200 0.007600
vn -0.359200 -0.933200 0.007600
vn -0.356500 -0.934300 0.007100
vn -0.380100 -0.924900 0.011100
vn -0.924900 -0.380100 0.011100
vn -0.934300 -0.356500 0.007100
vn -0.933200 -0.359200 0.007600
vn -0.380100 0.924900 0.011100
vn -0.356500 0.934300 0.007100
vn -0.359200 0.933200 0.007600
vn 0.359200 0.933200 0.007600
vn 0.356500 0.934300 0.007100
vn 0.380100 0.924900 0.011100
vn -0.933200 0.359200 0.007600
vn -0.934300 0.356500 0.007100
vn -0.924900 0.380100 0.011100
vn 0.924900 0.380100 0.011100
vn 0.934300 0.356500 0.007100
vn 0.933200 0.359200 0.007600
vn -0.006800 -0.000000 1.000000
vn 0.000000 -0.006800 1.000000
vn 0.006800 -0.000000 1.000000
vn 0.000000 0.000000 -1.000000
vn 0.923800 -0.382700 0.011500
vn 0.382700 -0.923800 0.011500
vn -0.382700 -0.923800 0.011500
vn -0.923800 -0.382700 0.011500
vn -0.382700 0.923800 0.011500
vn 0.382700 0.923800 0.011500
vn -0.923800 0.382700 0.011500
vn 0.923800 0.382700 0.011500
vn -0.019600 -0.019600 0.999600
vn -0.000000 0.006800 1.000000
vn -0.019600 0.019600 0.999600
vn 0.019600 0.019600 0.999600
vn 0.019600 -0.019600 0.999600
usemtl TreeLeaves
s 1
f 1//1 2//2 3//3
f 4//4 5//4 1//4
f 6//5 7//6 8//7
f 3//8 2//8 6//8
f 9//9 10//10 11//11
f 8//12 7//12 9//12
f 5//13 12//13 7//13
f 11//14 10//14 12//14
f 13//15 14//16 15//17
f 16//18 17//19 18//20
f 13//21 19//21 20//21
f 14//22 8//23 11//24
f 16//25 21//26 22//27
f 23//28 22//29 20//30
f 24//31 25//32 26//33
f 26//34 27//35 20//36
f 28//37 26//38 25//39
f 29//40 30//41 14//42
f 29//43 13//43 27//43
f 30//44 3//45 8//46
f 31//47 32//48 28//49
f 28//50 32//51 33//52
f 34//53 32//54 31//55
f 35//56 36//57 30//58
f 35//59 29//59 33//59
f 36//60 4//61 3//62
f 37//63 23//64 34//65
f 34//66 23//67 38//68
f 19//69 15//70 36//71
f 12//72 5//73 4//74
f 19//75 35//75 38//75
f 15//76 11//77 4//78
f 24//79 22//79 21//79
f 38//80 20//80 19//80
f 20//81 27//81 13//81
f 28//82 27//82 26//82
f 27//83 33//83 29//83
f 34//84 33//84 32//84
f 33//85 38//85 35//85
f 16//86 23//86 37//86
f 4//87 1//1 3//3
f 3//88 6//5 8//7
f 8//89 9//9 11//11
f 2//13 1//13 5//13
f 5//13 6//13 2//13
f 10//13 9//13 7//13
f 7//13 12//13 10//13
f 7//13 6//13 5//13
f 19//90 13//15 15//17
f 24//91 21//92 16//18
f 18//20 25//93 24//91
f 17//19 31//94 18//20
f 16//18 37//95 17//19
f 18//20 24//91 16//18
f 15//96 14//22 11//24
f 23//97 16//25 22//27
f 38//98 23//28 20//30
f 22//99 24//31 26//33
f 22//100 26//34 20//36
f 18//101 28//37 25//39
f 13//102 29//40 14//42
f 14//103 30//44 8//46
f 18//104 31//47 28//49
f 27//105 28//50 33//52
f 17//106 34//53 31//55
f 29//107 35//56 30//58
f 30//108 36//60 3//62
f 17//109 37//63 34//65
f 33//110 34//66 38//68
f 35//111 19//69 36//71
f 11//112 12//72 4//74
f 36//113 15//76 4//78
usemtl Bark
f 39//114 40//115 41//116
f 41//117 40//118 42//119
f 42//120 43//121 44//122
f 44//123 43//124 45//125
f 46//126 47//127 48//128
f 48//129 49//130 50//131
f 45//132 47//133 46//134
f 50//135 49//136 39//137
f 39//138 48//139 45//140
f 46//141 50//141 51//141
f 52//142 39//114 41//116
f 51//143 41//117 42//119
f 51//144 42//120 44//122
f 53//145 44//123 45//125
f 54//146 46//126 48//128
f 54//147 48//129 50//131
f 53//148 45//132 46//134
f 52//149 50//135 39//137
f 48//139 39//138 49//150
f 39//138 42//151 40//152
f 42//151 45//140 43//153
f 45//140 48//139 47//154
f 45//140 42//151 39//138
f 50//141 46//141 54//141
f 46//141 44//141 53//141
f 50//141 41//141 51//141
f 41//141 50//141 52//141
f 51//141 44//141 46//141
