# Blender v2.75 (sub 0) OBJ File: ''
# www.blender.org
mtllib reed.mtl
o Untitled.001_WaterReedsOne100
v 0.327733 0.599804 3.101064
v -1.072616 1.397749 -0.146693
v -0.165236 0.589629 4.603591
v 0.662115 -0.628090 2.962031
v 0.986104 1.149729 0.030887
v 1.178015 -0.531733 4.369219
v -1.773068 0.801596 2.814765
v 1.421474 1.246597 2.942044
v -0.707042 0.098670 2.733737
v 0.408972 -0.254928 -0.179508
v -0.192033 0.220127 3.996758
v -1.540317 -0.094469 2.428529
v 0.474361 -0.632517 0.081384
v -1.499868 -0.062268 3.796934
v -0.695438 1.327276 2.596155
v -0.782542 -0.396194 -0.026738
v -0.599744 1.099088 3.942997
v 0.990629 0.310075 2.437159
v -0.970832 1.001056 0.084984
v 0.950858 0.301264 3.805934
v 0.283102 -0.094468 2.705289
v -0.824059 0.484817 2.716126
v -0.209585 -0.451881 2.596155
v 1.068264 0.404709 2.338659
v 0.393281 0.905065 1.984347
v 0.837894 -0.684070 -0.064367
v 0.747050 0.991934 3.072349
v -0.343628 0.429428 2.177399
v -1.721377 -0.009214 -0.020249
v -0.494501 0.287229 3.305879
v -0.230393 1.526733 1.918355
v -0.761977 -0.192497 0.170539
v -0.612246 1.812578 2.903059
v 1.592477 -0.069328 1.964178
v -1.596523 -0.475102 2.177399
v -1.086867 0.365283 2.216733
v -0.712163 0.354599 1.791848
v 0.771427 -0.041615 0.063433
v -0.682377 0.378311 2.799529
v 0.630586 0.354599 1.995652
v 0.105904 -0.312228 3.942996
v 0.718674 1.063927 -0.026738
v 0.187158 1.284997 2.596155
v -1.668898 0.753386 4.401578
v 1.738911 0.804486 4.351597
v 0.410349 -0.637307 3.072349
v -0.178236 0.934576 -0.064367
v -0.714092 0.122072 1.964178
v 1.726460 0.356179 3.984959
v 0.211409 0.648979 0.029334
v 0.246184 1.054159 2.683684
v 0.595995 1.216028 0.077481
v -0.193885 -0.078957 3.997680
v 1.083215 0.423026 3.716148
v -0.347302 0.443070 4.008020
v -0.267764 -0.179954 3.945490
v 0.363680 -0.333071 0.050440
v -1.006168 -0.480085 0.131884
v -0.974886 -0.613996 -0.141384
v -1.150941 1.023158 -0.029506
v 0.469734 0.843695 -0.139271
v -1.549469 1.812578 2.903059
v -1.699200 -0.192497 0.170539
v -2.024089 0.365283 2.216733
v -1.433681 -0.554990 3.305879
v -0.402529 0.172906 -0.020249
v -0.690354 0.559939 2.177399
v -1.294500 -0.347168 3.238685
v -1.261476 -0.592087 -0.144854
v -1.035691 -1.277809 1.875639
v -2.149266 0.467822 3.186690
v -1.013398 -0.011701 0.026109
v -1.107613 -0.322676 2.146959
v -1.468659 -0.537094 3.240472
v -0.614417 -0.539289 -0.042769
v -0.343334 -0.888520 2.056787
v -1.400301 -0.349468 3.307969
v 1.597983 0.283632 3.063206
v -1.236634 0.987315 3.112490
v -0.716213 0.697327 -0.022568
v -0.106384 0.101932 -0.054221
v 0.279337 0.366021 2.947356
v -0.069096 0.723296 -0.061869
v -0.295785 -0.027976 -0.100611
vt -0.022941 0.666500
vt 0.851100 0.000500
vt 0.125249 0.999501
vt 0.976060 0.666500
vt 0.809710 0.999500
vt 0.083859 0.000500
vn 0.262600 0.957200 0.122000
vn 0.070900 0.979800 0.187100
vn 0.109900 0.989200 0.096900
vn 0.814400 -0.531600 -0.232400
vn 0.914900 -0.374600 -0.150300
vn 0.887200 -0.391800 -0.243500
vn -0.030300 0.989100 0.144400
vn 0.945500 -0.272500 -0.178200
vn 0.006600 -0.992400 0.123000
vn 0.202200 -0.964100 0.172300
vn 0.159800 -0.983500 0.085200
vn -0.195400 -0.979100 0.056700
vn -0.028600 -0.984400 0.173500
vn -0.039500 -0.996300 0.076100
vn -0.993100 -0.079800 0.085400
vn -0.950200 -0.257200 0.175900
vn -0.968400 -0.235800 0.081200
vn 0.286400 0.957200 0.042400
vn 0.121100 0.979800 0.159300
vn 0.132900 0.989200 0.061700
vn 0.080900 -0.983600 0.161200
vn 0.012000 0.989100 0.147100
vn -0.921400 -0.359600 0.147200
vn 0.298500 -0.946700 0.121500
vn -0.727800 -0.609300 0.314700
vn -0.575200 -0.712700 0.401500
vn -0.617100 -0.722100 0.312600
vn -0.423400 0.901900 0.085400
vn -0.574400 0.799400 0.175900
vn -0.560800 0.824000 0.081200
vn -0.668000 0.621900 -0.408600
vn -0.802300 0.518500 -0.295600
vn -0.771400 0.504200 -0.388300
vn -0.496700 -0.784200 0.372100
vn -0.660200 0.736500 0.147200
vn -0.855900 0.422300 -0.298600
vn 0.976000 0.109300 0.188600
vn 0.105100 0.994200 0.023300
vn 0.874200 -0.371100 -0.313300
vn 0.198300 0.890700 0.409100
vn 0.517600 0.844800 -0.135700
vn 0.078600 0.975400 0.205800
vn -0.013800 -0.999900 0.006900
vn 0.159600 -0.987100 0.011400
vn 0.107400 0.994200 -0.007500
vn -0.967900 -0.251200 0.008900
vn 0.913300 -0.385100 -0.132600
vn 0.195200 -0.961900 0.191500
vn -0.041600 -0.981100 0.189200
vn -0.949800 -0.246100 0.193300
vn 0.133800 0.975400 0.175000
vn -0.878500 0.406800 -0.250400
vn 0.894400 -0.405500 0.188600
vn -0.959100 -0.283000 0.011100
vn -0.681300 -0.719300 -0.135700
vn -0.392200 -0.914300 -0.101400
vn -0.575000 0.818100 0.008900
vn -0.619000 -0.746800 0.243000
vn -0.763500 0.463600 -0.449600
vn -0.563900 0.802900 0.193300
vn -0.578600 -0.700500 0.417800
vn -0.798300 0.532600 -0.281100
usemtl ReedGrass_02
s 1
f 1/1/1 2/2/2 3/3/3
f 4/1/4 5/2/5 6/3/6
f 7/4/7 3/3/3 2/2/2
f 8/4/8 6/3/6 5/2/5
f 9/1/9 10/2/10 11/3/11
f 12/1/12 13/2/13 14/3/14
f 15/1/15 16/2/16 17/3/17
f 18/1/18 19/2/19 20/3/20
f 21/4/21 14/3/14 13/2/13
f 22/4/22 20/3/20 19/2/19
f 23/4/23 17/3/17 16/2/16
f 24/4/24 11/3/11 10/2/10
f 25/1/25 26/2/26 27/3/27
f 28/1/28 29/2/29 30/3/30
f 31/1/31 32/2/32 33/3/33
f 34/4/34 27/3/27 26/2/26
f 35/4/35 30/3/30 29/2/29
f 36/4/36 33/3/33 32/2/32
f 37/1/12 38/2/13 39/3/14
f 40/4/21 39/3/14 38/2/13
f 41/3/37 42/2/37 43/4/37
f 3/3/3 7/4/7 44/5/38
f 6/3/6 8/4/8 45/5/39
f 46/3/40 47/2/40 48/4/40
f 49/3/41 50/2/41 51/4/41
f 2/2/2 1/1/1 52/6/42
f 14/3/14 21/4/21 53/5/43
f 11/3/11 24/4/24 54/5/44
f 20/3/20 22/4/22 55/5/45
f 17/3/17 23/4/23 56/5/46
f 5/2/5 4/1/4 57/6/47
f 10/2/10 9/1/9 58/6/48
f 13/2/13 12/1/12 59/6/49
f 16/2/16 15/1/15 60/6/50
f 19/2/19 18/1/18 61/6/51
f 62/3/52 63/2/52 64/4/52
f 65/3/53 66/2/53 67/4/53
f 68/3/54 69/2/54 70/4/54
f 71/3/55 72/2/55 73/4/55
f 74/3/56 75/2/56 76/4/56
f 30/3/30 35/4/35 77/5/57
f 27/3/27 34/4/34 78/5/58
f 33/3/33 36/4/36 79/5/59
f 29/2/29 28/1/28 80/6/60
f 26/2/26 25/1/25 81/6/61
f 39/3/14 40/4/21 82/5/43
f 32/2/32 31/1/31 83/6/62
f 38/2/13 37/1/12 84/6/49
