# Blender v2.75 (sub 0) OBJ File: ''
# www.blender.org
mtllib rock.mtl
o rock
v -0.535035 0.057554 1.239926
v -0.153650 -0.144696 1.252162
v -0.165008 0.074718 1.273299
v -0.300752 -0.597951 0.953511
v -0.045633 -0.476154 1.156150
v -0.460102 -0.580321 0.989503
v 0.266303 -0.255666 0.044331
v 0.513760 0.027560 0.061138
v 0.471064 -0.143840 0.131604
v -0.088698 0.294887 1.296358
v 0.230888 0.006557 1.166547
v 0.293852 0.290571 0.984335
v -1.155928 -0.213352 0.127663
v -0.769843 0.186654 0.263070
v -0.756475 0.025445 0.106497
v -0.481481 0.308787 1.341388
v -0.653269 0.134659 1.097611
v 0.404947 -0.597391 1.062005
v 0.406910 -0.534936 0.607975
v 0.450069 -0.564777 1.109912
v 0.420642 -0.199839 1.238151
v 0.650870 0.310578 0.181387
v -0.062676 -0.461987 0.604056
v -0.289448 -0.665597 0.837079
v -0.413892 0.557052 0.126916
v -0.233477 0.515699 1.313846
v 0.030580 0.469076 0.161115
v 0.425660 -0.520690 1.224430
v 0.278692 -0.510631 1.293063
v 0.471612 0.560831 0.181279
v 0.378997 0.511610 0.127681
v -0.641352 0.525832 0.164523
v 0.318612 -0.121037 1.291471
v 0.136937 -0.061320 1.252445
v 0.296630 -0.197229 1.353240
v 0.335593 -0.603649 1.066537
v 0.343604 -0.554486 1.265469
v -0.244914 0.303954 1.476045
v -0.360620 0.198724 1.360864
v 0.373854 -0.786565 0.153134
v 0.303547 -0.794687 0.139931
v 0.076283 -0.711403 0.328066
v -0.105475 -0.539635 0.358454
v -0.005187 -0.570078 0.109529
v 0.433542 0.393535 0.072218
v 0.547891 0.472440 0.164648
v 0.515019 0.298569 0.018974
v 0.585012 0.293917 0.085490
v 0.206052 -0.786262 0.156975
v 0.392076 -0.776633 0.254774
v 0.482035 0.575314 0.283677
v -1.203214 -0.325638 0.242749
v -0.984812 -0.335391 0.065707
v 0.526349 0.494868 0.401885
v 0.178029 -0.748840 0.368473
v -0.680762 -0.098278 1.114519
v -1.217303 -0.263667 0.181657
v -1.165350 -0.335701 0.130102
v -0.641390 -0.121336 1.218907
v -0.526044 -0.593394 0.780285
v -0.450016 0.544569 1.378599
v -1.185580 -0.265080 0.114144
vt 0.235433 0.661273
vt 0.645443 0.443844
vt 0.633232 0.679726
vt 0.487300 -0.043431
vt 0.761568 0.087508
vt 0.315990 0.879831
vt -0.096916 0.324544
vt 0.629027 -0.118213
vt -0.317046 0.444763
vt 0.715270 0.916420
vt 1.058843 0.606449
vt 1.126533 0.911780
vt 1.432062 -0.046696
vt 0.199937 0.098875
vt 1.002627 -0.069450
vt 0.068636 1.258126
vt 0.108325 0.744166
vt 1.245966 0.957775
vt 1.248076 0.469667
vt 1.294475 1.009278
vt 0.911780 0.874274
vt 0.384562 1.147142
vt 0.933287 0.011061
vt 0.743246 0.465455
vt 0.761568 1.058987
vt 0.487300 0.841138
vt 0.499452 0.715966
vt 0.634332 -0.047498
vt 0.440375 1.228517
vt 0.156500 -0.010733
vt 1.268233 0.039629
vt 1.262839 0.384562
vt 1.110235 0.050444
vt -0.317635 1.202323
vt -0.218069 -0.046676
vt 0.444763 -0.042459
vt 0.024313 0.469667
vt -0.164698 -0.007070
vt 0.373246 -0.069450
vt -0.153152 1.204463
vt 0.957840 0.533477
vt 1.129519 0.387368
vt 1.171406 0.962648
vt 1.180019 1.176511
vt 1.110235 1.206175
vt 0.547330 0.926167
vt 0.293006 0.931364
vt 0.422939 0.813040
vt -0.212539 -0.246203
vt -0.136955 -0.254934
vt 0.892634 0.168749
vt 0.697234 0.201418
vt 0.805049 -0.066190
vt 0.926167 1.402891
vt 0.916420 1.209717
vt -0.276707 1.022471
vt -0.218069 1.149409
vt -0.399639 1.107298
vt -0.364300 -0.163543
vt -0.276707 -0.106302
vt -0.439546 -0.092034
vt 1.107298 -0.006935
vt 0.915376 -0.092034
vt -0.364300 0.920377
vt -0.439546 0.915376
vt -0.362946 0.629027
vt 1.032142 -0.015183
vt 1.136955 -0.033506
vt 1.232129 0.089957
vt -0.328840 0.121027
vt -0.126532 0.874274
vt 0.750680 0.077028
vt 1.248102 0.238835
vt 1.217894 0.121027
vt 1.131410 0.248109
vt 1.180019 0.003296
vt -0.007767 1.009278
vt 1.002017 0.212189
vt 0.156500 1.103682
vt 1.002627 0.626754
vt -0.031410 0.493746
vt 0.684058 0.011351
vt 0.761498 -0.044074
vt 0.121095 0.468957
vt 0.245098 0.654911
vt 0.559625 1.153806
vt 0.326834 1.184843
vt 1.153152 0.469279
vt -0.317635 0.010944
vt 0.878864 -0.007070
vt 0.673167 1.298129
vt -0.235526 0.089957
vt -0.246203 -0.019312
vt 0.039629 1.132391
vt 0.315990 -0.024477
vt 1.212539 -0.019312
vt -0.376480 0.248109
vt 0.629966 -0.046696
vt 0.685576 -0.061230
vt 0.255834 0.996053
vt -0.184843 1.298129
vt 1.024477 0.879831
vt 0.531043 1.126453
vt 0.506254 1.014230
vt 1.038532 0.654911
vt -0.032142 -0.245877
vt 1.202323 0.010944
vt 0.634332 1.198261
vt 1.432062 0.370034
vt 0.878864 1.164698
vt 1.463939 0.314424
vn -0.482900 -0.095600 0.870400
vn -0.124700 -0.204300 0.970900
vn 0.069500 -0.264500 0.961900
vn 0.255800 -0.886500 0.385700
vn -0.214700 -0.746900 0.629300
vn -0.437400 -0.723000 0.534700
vn 0.094700 -0.108300 -0.989600
vn 0.658400 -0.278900 -0.699000
vn 0.811700 -0.336400 -0.477400
vn 0.604800 0.150900 0.781900
vn 0.388300 0.495500 0.777000
vn 0.672400 0.511900 0.534600
vn -0.528500 0.574600 -0.625000
vn -0.866900 0.485300 -0.114000
vn -0.266600 0.311600 -0.912100
vn -0.647100 -0.116400 0.753500
vn -0.877800 0.237700 0.416000
vn 0.325200 -0.938700 0.114800
vn 0.709500 -0.682000 0.177500
vn 0.832100 -0.535300 0.145000
vn 0.847800 0.168500 0.502800
vn 0.974900 0.140000 -0.173100
vn -0.118700 -0.988000 0.099200
vn 0.290800 -0.956500 -0.025000
vn 0.012000 0.738900 -0.673700
vn 0.377300 0.812400 0.444600
vn -0.064000 0.708400 -0.702900
vn 0.751400 -0.306300 0.584500
vn -0.070400 -0.513300 0.855300
vn 0.282200 0.836400 -0.469900
vn -0.018100 0.628600 -0.777500
vn -0.575600 0.673200 -0.464200
vn 0.446800 0.651200 0.613400
vn 0.121500 0.399700 0.908600
vn 0.224100 0.130000 0.965800
vn -0.072200 -0.993200 0.091500
vn 0.121800 -0.675400 0.727300
vn 0.214500 -0.076200 0.973800
vn -0.256400 -0.507400 0.822700
vn 0.568400 -0.655600 -0.497000
vn 0.033400 -0.806000 -0.591000
vn -0.579400 -0.805300 0.125900
vn -0.493000 -0.863500 -0.105800
vn -0.700300 -0.135600 -0.700800
vn 0.040400 0.369600 -0.928300
vn 0.677700 0.566100 -0.469400
vn 0.261600 0.297100 -0.918300
vn 0.721500 0.170200 -0.671100
vn -0.308000 -0.854200 -0.419000
vn 0.655700 -0.736200 0.167400
vn 0.400400 0.915900 0.027100
vn -0.857200 -0.453200 0.244700
vn -0.182700 -0.537100 -0.823500
vn 0.745500 0.559400 0.362300
vn -0.164800 -0.886300 0.432900
vn -0.874000 -0.103500 0.474800
vn -0.973500 0.224800 0.042700
vn -0.435600 -0.786700 -0.437500
vn -0.657400 -0.141400 0.740100
vn -0.416600 -0.907400 -0.055900
vn -0.402700 0.698600 0.591400
vn -0.648300 0.102500 -0.754400
usemtl LayerRock_01
s 1
f 1/1/1 2/2/2 3/3/3
f 4/4/4 5/5/5 6/6/6
f 7/7/7 8/8/8 9/9/9
f 10/10/10 11/11/11 12/12/12
f 13/13/13 14/14/14 15/15/15
f 1/1/1 16/16/16 17/17/17
f 18/18/18 19/19/19 20/20/20
f 12/21/12 21/22/21 22/23/22
f 23/24/23 5/25/5 4/26/4
f 4/26/4 24/27/24 23/24/23
f 25/28/25 26/29/26 27/30/27
f 28/31/28 21/32/21 29/33/29
f 27/30/27 30/34/30 31/35/31
f 9/36/9 22/23/22 19/37/19
f 32/38/32 15/39/15 14/14/14
f 33/40/33 34/41/34 35/42/35
f 36/43/36 37/44/37 29/45/29
f 38/46/38 16/47/16 39/48/39
f 40/49/40 41/50/41 7/7/7
f 42/51/42 43/52/43 44/53/44
f 2/2/2 5/5/5 35/42/35
f 38/54/38 3/3/3 10/55/10
f 36/43/36 23/24/23 19/19/19
f 45/56/45 31/57/31 46/58/46
f 47/59/47 45/60/45 48/61/48
f 46/62/46 22/23/22 48/63/48
f 23/24/23 43/52/43 42/51/42
f 47/64/47 48/65/48 8/66/8
f 49/67/49 41/68/41 50/69/50
f 51/70/51 26/29/26 12/71/12
f 52/72/52 53/73/53 43/52/43
f 38/46/38 39/48/39 3/3/3
f 51/74/51 54/75/54 46/62/46
f 37/76/37 20/77/20 28/31/28
f 19/19/19 23/24/23 55/78/55
f 27/79/27 7/7/7 15/80/15
f 1/1/1 17/17/17 56/81/56
f 36/43/36 18/18/18 20/20/20
f 57/82/57 58/83/58 52/72/52
f 3/3/3 39/48/39 1/1/1
f 34/41/34 10/10/10 3/3/3
f 3/3/3 2/2/2 34/41/34
f 2/2/2 1/1/1 59/84/59
f 6/6/6 24/27/24 4/4/4
f 24/27/24 6/6/6 60/85/60
f 26/86/26 61/87/61 38/54/38
f 10/10/10 12/12/12 26/86/26
f 10/10/10 34/41/34 11/11/11
f 26/86/26 38/54/38 10/10/10
f 21/22/21 12/21/12 11/11/11
f 12/21/12 22/23/22 54/75/54
f 33/88/33 35/42/35 21/22/21
f 21/22/21 11/11/11 33/88/33
f 51/70/51 30/89/30 27/30/27
f 26/29/26 25/28/25 32/90/32
f 32/90/32 61/91/61 26/29/26
f 26/29/26 51/70/51 27/30/27
f 29/33/29 37/76/37 28/31/28
f 21/32/21 35/42/35 29/33/29
f 50/92/50 40/93/40 9/36/9
f 21/22/21 20/77/20 19/37/19
f 19/37/19 50/92/50 9/36/9
f 22/23/22 8/8/8 48/63/48
f 19/37/19 22/23/22 21/22/21
f 21/22/21 28/94/28 20/77/20
f 22/23/22 9/36/9 8/8/8
f 34/41/34 33/40/33 11/11/11
f 34/41/34 2/2/2 35/42/35
f 5/25/5 23/24/23 36/43/36
f 36/43/36 29/45/29 5/25/5
f 16/47/16 38/46/38 61/87/61
f 16/47/16 1/1/1 39/48/39
f 9/9/9 40/49/40 7/7/7
f 49/67/49 42/51/42 44/53/44
f 6/95/6 2/2/2 59/84/59
f 5/5/5 29/33/29 35/42/35
f 2/2/2 6/95/6 5/5/5
f 18/18/18 36/43/36 19/19/19
f 46/58/46 48/65/48 45/56/45
f 31/57/31 30/34/30 46/58/46
f 55/78/55 23/24/23 42/51/42
f 7/7/7 47/64/47 8/66/8
f 55/78/55 42/51/42 49/67/49
f 49/67/49 50/69/50 55/78/55
f 50/69/50 41/68/41 40/96/40
f 54/97/54 51/70/51 12/71/12
f 13/98/13 62/99/62 57/82/57
f 17/100/17 32/38/32 14/14/14
f 14/14/14 13/98/13 57/82/57
f 52/72/52 58/83/58 53/73/53
f 14/14/14 57/82/57 52/72/52
f 17/100/17 61/101/61 32/38/32
f 6/102/6 59/103/59 56/104/56
f 17/100/17 16/16/16 61/101/61
f 52/72/52 56/104/56 17/100/17
f 23/24/23 24/27/24 60/105/60
f 60/105/60 6/102/6 56/104/56
f 17/100/17 14/14/14 52/72/52
f 43/52/43 53/73/53 7/7/7
f 44/53/44 41/50/41 49/106/49
f 52/72/52 23/24/23 60/105/60
f 7/7/7 41/50/41 44/53/44
f 52/72/52 43/52/43 23/24/23
f 60/105/60 56/104/56 52/72/52
f 43/52/43 7/7/7 44/53/44
f 46/62/46 30/107/30 51/74/51
f 54/75/54 22/23/22 46/62/46
f 50/69/50 19/19/19 55/78/55
f 27/79/27 31/57/31 45/56/45
f 15/80/15 25/108/25 27/79/27
f 53/73/53 13/109/13 15/80/15
f 15/80/15 32/110/32 25/108/25
f 7/7/7 45/56/45 47/64/47
f 15/80/15 7/7/7 53/73/53
f 53/73/53 62/111/62 13/109/13
f 7/7/7 27/79/27 45/56/45
f 59/84/59 1/1/1 56/81/56
f 37/44/37 36/43/36 20/20/20
f 58/83/58 57/82/57 62/111/62
f 62/111/62 53/73/53 58/83/58
