# Blender v2.75 (sub 0) OBJ File: ''
# www.blender.org
mtllib spire.mtl
o Icosphere
v -0.008410 0.042237 -2.980784
v 2.915612 -2.009656 -1.370046
v -1.031185 -3.384263 -1.378389
v -3.558125 -0.055811 -1.324083
v -1.208344 5.059738 -1.258239
v 2.827957 2.168301 -1.310598
v 1.173016 -3.375875 1.282199
v -4.818081 -2.370313 1.313350
v -2.912257 1.992805 2.559263
v 1.003272 4.714699 1.397319
v 3.498498 2.897820 1.364522
v 0.013162 -0.066100 4.664833
v -0.611054 -1.964378 -2.562257
v 1.708798 -1.156411 -2.557353
v 1.107638 -3.170462 -1.615487
v 3.375971 0.093249 -1.575636
v 1.657276 1.299313 -2.522411
v -2.096354 -0.007978 -2.530336
v -4.687662 -2.224028 -1.585721
v -0.694420 2.009101 -2.505719
v -2.816231 3.635339 -1.507975
v 0.972750 3.258781 -1.524006
v 3.745547 1.693572 0.013430
v 3.694025 4.149306 0.048372
v 0.083366 -3.973517 -0.056539
v 2.403248 -3.165552 -0.051636
v -5.743776 -1.509308 -0.005181
v -4.258483 -3.465743 -0.037094
v -2.438576 4.849415 0.075595
v -3.840502 2.832300 0.050969
v 2.173924 7.764831 0.103892
v -0.147176 7.014904 0.099815
v 2.721276 0.890533 1.572374
v -0.972750 -3.258781 1.524006
v -3.372616 -0.110100 2.764854
v -1.104283 3.153611 2.804705
v 2.637911 4.864026 1.628912
v 0.694420 -2.009101 2.505718
v 2.036727 2.849988 2.570775
v -0.988663 0.221842 5.985006
v -1.705443 1.139560 3.746571
v 0.615806 1.940516 4.246306
vn 0.081000 -0.226800 -0.970600
vn 0.607300 -0.207900 -0.766700
vn -0.205600 -0.140300 -0.968500
vn -0.211900 0.159000 -0.964300
vn 0.070900 0.257500 -0.963700
vn 0.976600 -0.214800 -0.010800
vn 0.041600 -0.899100 -0.435800
vn -0.656700 0.417900 -0.627800
vn -0.567800 0.713100 -0.411300
vn 0.262600 0.265200 -0.927800
vn 0.954200 -0.265400 0.138100
vn -0.111300 -0.939200 -0.324800
vn -0.626800 0.284200 -0.725500
vn -0.607900 0.648300 -0.458400
vn 0.594500 0.261600 -0.760300
vn 0.721500 -0.304100 0.622000
vn -0.211100 -0.771000 0.600800
vn -0.607300 0.207900 0.766700
vn -0.071600 0.719500 0.690800
vn 0.623800 0.170500 0.762700
vn 0.786600 -0.109500 0.607600
vn 0.732700 0.096300 0.673700
vn -0.161500 0.717900 0.677100
vn -0.293100 0.278800 0.914500
vn -0.339700 0.479700 0.809000
vn -0.415400 0.484100 0.770100
vn 0.493900 0.848600 0.189700
vn -0.690000 0.564900 0.452600
vn -0.802600 0.141000 0.579600
vn 0.669000 -0.435000 0.602600
vn 0.222400 -0.768300 0.600200
vn 0.049000 -0.656600 0.752600
vn 0.843200 -0.239400 0.481400
vn 0.611300 -0.179200 0.770800
vn 0.630900 -0.165800 0.758000
vn 0.848800 0.314400 0.425000
vn 0.844400 0.348800 0.406500
vn -0.165200 0.438100 0.883600
vn 0.150800 0.541800 0.826800
vn -0.543200 0.567900 0.618400
vn -0.481700 0.619100 0.620200
vn -0.884000 0.233100 0.405200
vn -0.792300 0.340800 0.506100
vn -0.780900 0.103800 0.616000
vn -0.215500 -0.800100 0.559700
vn -0.107300 -0.930900 0.349200
vn -0.003600 -0.912100 0.410100
vn 0.723600 -0.304700 0.619300
vn 0.863400 -0.244400 0.441400
vn 0.861500 -0.290500 0.416400
vn -0.141100 0.431900 0.890800
vn -0.116200 0.364700 -0.923800
vn 0.266200 0.448300 -0.853400
vn -0.738600 0.507900 0.443300
vn -0.796500 0.556400 -0.236700
vn -0.859900 0.148500 -0.488500
vn -0.784900 -0.598500 0.160200
vn -0.772600 -0.582400 -0.252900
vn -0.218200 -0.790000 -0.573000
vn 0.324800 -0.933400 0.152400
vn 0.318000 -0.911600 -0.260600
vn 0.527600 -0.729800 -0.434800
vn 0.986300 0.018400 0.164000
vn 0.968200 0.023900 -0.249200
vn 0.602100 0.255600 -0.756400
vn 0.394300 0.522800 -0.755800
vn 0.141200 0.488200 -0.861200
vn 0.222800 0.400900 -0.888600
vn -0.166100 0.349100 -0.922200
vn -0.281700 0.207200 -0.936900
vn -0.635700 0.089600 -0.766800
vn -0.592700 0.393600 -0.702700
vn -0.221100 -0.152100 -0.963300
vn -0.148400 -0.607000 -0.780700
vn 0.597600 0.254900 -0.760200
vn 0.494600 0.022700 -0.868800
vn 0.251900 0.019100 -0.967600
vn -0.021900 -0.636400 -0.771000
vn 0.161100 -0.457100 -0.874700
vn 0.415400 -0.484100 -0.770100
usemtl None
s off
f 1//1 14//1 13//1
f 2//2 14//2 16//2
f 1//3 13//3 18//3
f 1//4 18//4 20//4
f 1//5 20//5 17//5
f 2//6 16//6 23//6
f 3//7 15//7 25//7
f 4//8 19//8 27//8
f 5//9 21//9 29//9
f 6//10 22//10 31//10
f 2//11 23//11 26//11
f 3//12 25//12 28//12
f 4//13 27//13 30//13
f 5//14 29//14 32//14
f 6//15 31//15 24//15
f 7//16 33//16 38//16
f 8//17 34//17 40//17
f 9//18 35//18 41//18
f 10//19 36//19 42//19
f 11//20 37//20 39//20
f 39//21 42//21 12//21
f 39//22 37//22 42//22
f 37//23 10//23 42//23
f 42//24 41//24 12//24
f 42//25 36//25 41//25
f 36//26 9//26 41//26
f 41//27 40//27 12//27
f 41//28 35//28 40//28
f 35//29 8//29 40//29
f 40//30 38//30 12//30
f 40//31 34//31 38//31
f 34//32 7//32 38//32
f 38//33 39//33 12//33
f 38//34 33//34 39//34
f 33//35 11//35 39//35
f 24//36 37//36 11//36
f 24//37 31//37 37//37
f 31//38 10//38 37//38
f 32//39 36//39 10//39
f 32//40 29//40 36//40
f 29//41 9//41 36//41
f 30//42 35//42 9//42
f 30//43 27//43 35//43
f 27//44 8//44 35//44
f 28//45 34//45 8//45
f 28//46 25//46 34//46
f 25//47 7//47 34//47
f 26//48 33//48 7//48
f 26//49 23//49 33//49
f 23//50 11//50 33//50
f 31//51 32//51 10//51
f 31//52 22//52 32//52
f 22//53 5//53 32//53
f 29//54 30//54 9//54
f 29//55 21//55 30//55
f 21//56 4//56 30//56
f 27//57 28//57 8//57
f 27//58 19//58 28//58
f 19//59 3//59 28//59
f 25//60 26//60 7//60
f 25//61 15//61 26//61
f 15//62 2//62 26//62
f 23//63 24//63 11//63
f 23//64 16//64 24//64
f 16//65 6//65 24//65
f 17//66 22//66 6//66
f 17//67 20//67 22//67
f 20//68 5//68 22//68
f 20//69 21//69 5//69
f 20//70 18//70 21//70
f 18//71 4//71 21//71
f 18//72 19//72 4//72
f 18//73 13//73 19//73
f 13//74 3//74 19//74
f 16//75 17//75 6//75
f 16//76 14//76 17//76
f 14//77 1//77 17//77
f 13//78 15//78 3//78
f 13//79 14//79 15//79
f 14//80 2//80 15//80
