# Blender v2.75 (sub 0) OBJ File: ''
# www.blender.org
mtllib thornBush.mtl
o Untitled.001_africanThornBushOne128
v -0.469128 -3.095402 1.437230
v -0.690528 -0.916620 -0.511566
v 1.868783 1.485152 0.155277
v 0.488594 -0.184071 -0.498662
v 0.605737 1.776963 0.155277
v -0.774451 0.107740 -0.498662
v 0.791103 -1.215174 0.874504
v -0.760367 -1.081430 -0.511208
v -1.927986 -0.812533 0.874505
v -0.676723 0.114444 -0.511207
v -0.664941 -1.104344 0.874505
v 0.586323 -0.177367 -0.511208
v 2.298106 0.451376 0.199767
v 0.496757 -0.160400 -0.500350
v -1.082777 0.751026 0.199767
v 0.552700 -0.220750 -0.500350
v 1.035061 0.743187 0.199767
v -0.766289 0.131411 -0.500350
v -2.345822 1.042837 0.199767
v -0.710346 0.071061 -0.500350
v 1.087544 1.650521 0.521461
v 1.111448 -1.630219 1.696846
v -0.993429 0.435819 0.592783
v 2.299151 0.266582 1.722219
v -0.176200 -0.489960 -0.608134
v 0.232662 -0.194423 2.805118
v -1.183142 -0.628284 -0.542012
v -1.436467 -0.626875 2.899008
v 0.123501 -2.516391 1.329925
v -1.982750 -1.611967 2.335652
v -2.022569 0.727630 0.416395
v 0.782971 0.558393 1.378765
v 0.946350 -0.440602 0.499965
v -0.293289 -0.333740 -0.607232
v -0.210094 -1.150827 1.440273
v 0.131235 1.061956 2.424724
v 1.347306 -1.244144 0.321961
v 0.546403 -0.142130 -0.513934
v 0.084260 -0.952333 0.321961
v -0.716643 0.149681 -0.513934
v 0.174023 1.021497 0.217880
v 0.193123 -1.599844 1.157024
v -2.057018 -0.380609 0.480576
v -0.231328 1.763379 0.396205
v -1.449285 -2.190976 1.009199
v -1.744841 -0.302746 1.847759
v -0.186240 -1.303660 1.009199
v -0.481796 0.584570 1.847759
v 1.821668 1.197131 0.628469
v 0.558622 1.488942 0.628469
v -0.675185 0.342629 -0.596366
v 0.587860 0.050818 -0.596366
v 0.354665 1.183115 0.301024
v -0.908381 0.295798 0.301023
v 1.868452 -1.436635 2.043790
v -0.174103 2.266431 0.728868
v -1.437148 2.558242 0.728868
v -0.058319 0.637512 1.305805
v -0.064767 -1.638594 1.305805
v 1.198279 -1.930405 1.305805
v -0.202893 2.243448 0.766422
v 1.060152 1.951638 0.766422
v -1.418819 -1.164800 0.766422
v -2.681864 -0.872989 0.766422
v 1.495708 0.860876 2.805118
v -0.173422 0.554714 2.899009
v -1.323859 0.846525 2.381483
v 0.267653 1.039711 0.844578
v 1.186288 0.501555 -0.547370
v 1.053896 -0.541711 -0.595870
v 2.360399 -0.009377 0.298325
v 1.097355 0.282434 0.298326
v -0.045494 -0.925048 -0.333008
v 0.500150 0.390564 2.042543
v -0.261217 -0.183929 -0.596295
v -0.165277 0.793366 -0.555106
v 0.038990 1.880515 1.172523
v -1.224055 2.172327 1.172523
v 0.862377 -0.478579 -0.377332
v -0.400668 -1.365895 -0.377332
v 0.147137 -0.730116 -0.674878
v -0.170787 -2.697583 0.556211
v 1.036106 -0.797520 0.587425
vt 0.000499 0.666500
vt 0.500000 0.000499
vt 0.744291 0.999500
vt 0.249298 0.999501
vt 0.326159 0.000500
vt 0.999500 0.333500
vt 0.000500 0.333500
vt 0.661847 0.000500
vt 0.999501 0.666500
vt 0.480278 0.000500
vn 0.620100 0.436100 -0.652200
vn -0.175900 -0.737400 -0.652200
vn -0.089500 0.426600 -0.900000
vn 0.543900 -0.528000 -0.652200
vn 0.404200 -0.347800 -0.845900
vn 0.175800 0.471400 -0.864200
vn -0.472500 -0.172700 -0.864200
vn -0.073500 -0.997300 -0.005000
vn -0.992600 0.034400 0.116300
vn -0.999600 0.002000 0.026100
vn -0.993200 0.032700 0.111400
vn -0.048600 -0.998800 -0.007900
vn -0.078200 -0.993800 0.079000
vn -0.050300 -0.998700 -0.002900
vn -0.477800 -0.699300 -0.531700
vn -0.525900 -0.718200 -0.455600
vn -0.480700 -0.700500 -0.527500
vn -0.059000 -0.998200 -0.003400
vn -0.022200 -0.993700 -0.109800
vn -0.057000 -0.998300 -0.009300
vn -0.848800 0.034400 -0.527500
vn -0.798200 0.002000 -0.602400
vn -0.846300 0.032700 -0.531700
vn -0.978400 0.063400 0.196800
vn -0.052500 -0.702200 0.710000
vn -0.991800 0.057600 0.113800
vn -0.019000 -0.995400 -0.093700
vn -0.426300 -0.674800 -0.602400
vn -0.091500 -0.991500 0.092500
vn -0.887900 0.063400 -0.455600
usemtl thornBranch_01
s 1
f 7/1/1 8/2/1 58/3/1
f 9/1/2 10/2/2 59/3/2
f 3/1/3 4/2/3 56/3/3
f 1/1/4 2/2/4 55/3/4
f 71/3/5 37/1/5 38/2/5
f 72/3/5 39/1/5 40/2/5
f 68/3/1 33/1/1 34/2/1
f 62/3/6 13/1/6 14/2/6
f 63/3/7 15/1/7 16/2/7
f 5/1/3 6/2/3 57/3/3
f 60/3/2 11/1/2 12/2/2
f 61/3/6 17/1/6 18/2/6
f 64/3/7 19/1/7 20/2/7
usemtl thornBranch02
f 28/4/8 27/5/8 83/6/8
f 41/7/9 81/8/10 42/9/11
f 24/9/12 66/4/13 23/7/14
f 29/9/15 30/4/16 43/7/17
f 31/7/18 76/8/19 32/9/20
f 54/7/21 80/8/22 45/9/23
f 22/9/11 65/4/24 21/7/9
f 77/4/25 52/10/25 49/9/25
f 53/7/21 79/8/22 47/9/23
f 35/9/11 36/4/24 44/7/9
f 51/10/25 50/9/25 78/4/25
f 26/4/26 25/5/26 82/6/26
f 74/4/24 41/7/9 42/9/11
f 69/8/27 24/9/12 23/7/14
f 73/8/28 29/9/15 43/7/17
f 67/4/29 31/7/18 32/9/20
f 46/4/30 54/7/21 45/9/23
f 70/8/10 22/9/11 21/7/9
f 48/4/30 53/7/21 47/9/23
f 75/8/10 35/9/11 44/7/9
