# Blender v2.75 (sub 0) OBJ File: ''
# www.blender.org
mtllib yellowBush.mtl
o YellowBushTwo64
v -0.902824 0.060379 0.190555
v -0.846243 -0.475882 4.182113
v 1.819757 0.048209 1.536941
v -0.300859 -0.968970 0.190555
v 0.237878 -0.992179 4.182113
v 0.113123 1.721980 1.536942
v 0.828961 0.268060 0.190555
v 0.478242 0.677659 4.182113
v -1.420379 -1.265910 1.536942
v -0.008587 -0.977317 0.209422
v 0.781635 -1.280476 3.366748
v 1.029844 0.978688 1.291892
v -0.951402 0.671577 0.209423
v -1.733688 0.348489 3.366748
v -0.360853 -1.462796 1.291892
v 0.735282 0.440864 0.209422
v 0.585021 1.273797 3.366748
v -1.475717 0.315260 1.291892
v -0.733567 -0.457634 0.209422
v -0.687647 -1.302767 3.366748
v 1.475962 -0.606903 1.291892
v 0.771566 0.204298 0.170058
v 1.700511 1.376538 1.928406
v -0.280752 1.284110 1.040049
v -0.027211 0.324536 0.170058
v -0.364770 1.781635 1.928406
v -1.527526 0.174793 1.040048
v 0.334228 -0.194615 0.170057
v 0.728414 -1.637426 1.928405
v 1.827553 0.013585 1.040048
v -1.088879 0.397085 0.170058
v -2.393403 -0.334559 1.928406
v -0.525467 -1.001462 1.040048
v -1.829035 -0.078995 2.872371
v 1.512791 0.908114 2.872371
v -0.299753 -1.905609 2.872371
v -1.485240 -0.847629 2.353627
v 0.040501 -1.822716 2.353627
v 1.432852 0.920973 2.353627
v -1.568230 1.251776 2.353627
v 0.441015 0.846677 4.188835
v 1.002454 -0.405315 4.188835
v -1.004407 -0.428870 4.188835
v -2.223477 0.410093 1.337570
v 0.047021 -1.292338 1.337570
v 0.302631 1.410209 1.337570
v 1.826105 0.623141 1.337570
v -1.184107 -1.048677 3.379468
v 1.343017 0.111990 3.379468
v 0.812674 -1.246662 3.379468
v -0.896794 1.032261 3.379468
v 0.560421 -0.189397 1.467923
v -0.328640 0.365514 1.467924
v -0.004639 -0.676372 1.467923
v 0.729101 -0.004135 0.184409
v 0.003876 0.635548 0.184410
v -0.551751 -0.604278 0.184410
v 0.777111 1.865961 2.107441
v 1.669710 -1.183374 2.107441
v -1.323074 1.364677 2.107441
v -1.725044 -1.137989 2.107441
v 0.951170 -0.608087 1.161279
v -1.394566 -0.256362 1.161279
v -0.004639 -1.182981 1.161279
v -0.077888 1.070322 1.161279
v -0.585269 0.327691 0.197793
vt 0.851150 0.297829
vt 0.681912 0.853384
vt 0.473374 0.297829
vt 0.095598 0.575607
vt 0.287387 0.020051
vt 0.299104 0.853384
vt 0.625309 0.020051
vn -0.478100 0.841700 -0.250800
vn -0.282400 0.955200 -0.087900
vn -0.102100 0.943400 -0.315300
vn -0.826100 0.547100 -0.134600
vn -0.692600 0.720300 0.038300
vn -0.543700 0.817000 -0.191600
vn -0.366200 0.692300 -0.621800
vn -0.346400 0.631100 -0.694100
vn -0.372400 0.661500 -0.650900
vn 0.937900 -0.018000 -0.346400
vn 0.846100 -0.340600 -0.410100
vn 0.702300 -0.487200 -0.519100
vn -0.693500 -0.631700 -0.346400
vn -0.848500 -0.334300 -0.410100
vn -0.844900 -0.129000 -0.519100
vn 0.963700 0.230400 -0.134600
vn 0.999100 0.014600 0.038300
vn 0.968300 -0.160200 -0.191600
vn 0.366500 -0.863500 -0.346400
vn 0.034600 -0.911400 -0.410100
vn -0.158000 -0.840000 -0.519100
vn -0.015500 -0.981300 -0.191600
vn -0.127000 -0.991300 0.033800
vn -0.367500 -0.926300 -0.083400
vn -0.243200 -0.904400 -0.350600
vn 0.179900 -0.909900 -0.373700
vn -0.457600 0.888500 0.033800
vn -0.222600 0.971300 -0.083400
vn -0.312600 0.882800 -0.350600
vn -0.664200 0.647400 -0.373700
vn -0.127000 -0.987500 -0.093000
vn -0.367500 -0.908000 -0.200900
vn 0.858500 -0.374000 -0.350600
vn 0.926500 0.043600 -0.373700
vn 0.849600 -0.519200 -0.093000
vn 0.678900 -0.706200 -0.200900
vn 0.003700 0.995600 -0.093000
vn 0.252100 0.946600 -0.200900
vn 0.370100 -0.919200 -0.134600
vn 0.161900 -0.986100 0.038300
vn 0.135700 0.875800 -0.463200
vn -0.284400 0.825900 -0.486800
vn -0.973900 -0.207000 -0.093000
vn -0.978500 0.046200 -0.200900
vn 0.961700 -0.272000 0.033800
vn 0.861900 -0.500200 -0.083400
vn 0.313000 0.717900 -0.621800
vn 0.277500 0.664200 -0.694100
vn 0.285200 0.703600 -0.650900
vn 0.393000 -0.677400 -0.621800
vn 0.370700 -0.617100 -0.694100
vn 0.397900 -0.646500 -0.650900
vn -0.562200 -0.545200 -0.621800
vn -0.509000 -0.509000 -0.694100
vn -0.531000 -0.542600 -0.650900
vn -0.873800 -0.478200 -0.087900
vn 0.963300 -0.253500 -0.087900
vn 0.161900 -0.982800 -0.087900
vn -0.398100 0.725100 -0.561800
vn -0.374000 0.534000 -0.758200
vn 0.318800 0.763300 -0.561800
vn 0.184400 0.625400 -0.758200
vn 0.426200 -0.709000 -0.561800
vn 0.394600 -0.519000 -0.758200
vn -0.584800 -0.585100 -0.561800
vn -0.408100 -0.508500 -0.758200
usemtl yellowBush_01
s 1
f 18/1/1 51/2/2 65/3/3
f 9/1/4 43/2/5 53/3/6
f 27/1/7 60/2/8 46/4/9
f 12/1/10 62/3/11 10/5/12
f 15/1/13 63/3/14 13/5/15
f 6/1/16 41/2/17 52/3/18
f 21/1/19 64/3/20 19/5/21
f 54/3/22 2/6/23 34/4/24
f 1/5/25 55/7/26 54/3/22
f 53/3/6 8/6/27 35/4/28
f 7/5/29 57/7/30 53/3/6
f 64/3/20 20/6/31 37/4/32
f 4/5/33 56/7/34 52/3/18
f 62/3/11 11/6/35 38/4/36
f 65/3/3 17/6/37 39/4/38
f 3/1/39 42/2/40 54/3/22
f 16/5/41 66/7/42 65/3/3
f 63/3/14 14/6/43 40/4/44
f 52/3/18 5/6/45 36/4/46
f 41/2/17 5/6/45 52/3/18
f 42/2/40 2/6/23 54/3/22
f 43/2/5 8/6/27 53/3/6
f 24/1/47 58/2/48 47/4/49
f 30/1/50 59/2/51 45/4/52
f 33/1/53 61/2/54 44/4/55
f 48/2/56 14/6/43 63/3/14
f 63/3/14 15/1/13 48/2/56
f 49/2/57 11/6/35 62/3/11
f 62/3/11 12/1/10 49/2/57
f 50/2/58 20/6/31 64/3/20
f 64/3/20 21/1/19 50/2/58
f 51/2/2 17/6/37 65/3/3
f 66/7/42 18/1/1 65/3/3
f 57/7/30 9/1/4 53/3/6
f 46/4/9 25/5/59 27/1/7
f 60/2/8 26/6/60 46/4/9
f 56/7/34 6/1/16 52/3/18
f 1/5/25 54/3/22 34/4/24
f 7/5/29 53/3/6 35/4/28
f 19/5/21 64/3/20 37/4/32
f 10/5/12 62/3/11 38/4/36
f 16/5/41 65/3/3 39/4/38
f 55/7/26 3/1/39 54/3/22
f 13/5/15 63/3/14 40/4/44
f 4/5/33 52/3/18 36/4/46
f 47/4/49 22/5/61 24/1/47
f 58/2/48 23/6/62 47/4/49
f 45/4/52 28/5/63 30/1/50
f 59/2/51 29/6/64 45/4/52
f 44/4/55 31/5/65 33/1/53
f 61/2/54 32/6/66 44/4/55
