# Blender v2.73 (sub 0) OBJ File: ''
# www.blender.org
mtllib boxOpenFace2.mtl
o Cube
v 1.000000 -1.000000 -1.000000
v 1.000000 -1.000000 1.000000
v -1.000000 -1.000000 1.000000
v -1.000000 -1.000000 -1.000000
v 1.000000 1.000000 -0.999999
v 0.999999 1.000000 1.000001
v -1.000000 1.000000 1.000000
v -1.000000 1.000000 -1.000000
vn 0.000000 -1.000000 0.000000
vn 0.000000 1.000000 0.000000
vn -0.000000 0.000000 1.000000
vn 0.000000 0.000000 -1.000000
usemtl Material
s off
f 2//1 3//1 4//1
f 8//2 7//2 6//2
f 6//3 7//3 3//3
f 1//4 4//4 8//4
f 1//1 2//1 4//1
f 5//2 8//2 6//2
f 2//3 6//3 3//3
f 5//4 1//4 8//4
