# Blender v2.73 (sub 0) OBJ File: 'weedoftheseablend.blend'
# www.blender.org
mtllib seaweed.mtl
o Cone.012
v 0.030304 0.811454 0.005807
v 0.014230 1.052477 0.083263
v -0.216897 1.089892 -0.879968
v -0.066179 0.818036 0.029214
v -0.050105 0.577013 -0.048242
vn 0.964400 0.137000 -0.226100
vn -0.985500 -0.107900 0.131100
vn -0.934800 0.266500 0.234700
vn 0.913800 -0.237400 -0.329600
vn 0.207300 -0.286700 0.935300
usemtl None
s off
f 1//1 3//1 2//1
f 3//2 5//2 4//2
f 3//3 4//3 2//3
f 3//4 1//4 5//4
f 1//5 2//5 4//5
f 5//5 1//5 4//5
o Cone.011
v 0.030304 3.259432 0.005807
v 0.014230 3.500455 0.083263
v -0.216897 3.537869 -0.879968
v -0.066179 3.266013 0.029214
v -0.050105 3.024990 -0.048242
vn 0.964400 0.137000 -0.226100
vn -0.985500 -0.107900 0.131100
vn -0.934800 0.266500 0.234700
vn 0.913800 -0.237400 -0.329600
vn 0.207300 -0.286700 0.935300
usemtl None
s off
f 6//6 8//6 7//6
f 8//7 10//7 9//7
f 8//8 9//8 7//8
f 8//9 6//9 10//9
f 6//10 7//10 9//10
f 10//10 6//10 9//10
o Cone.010
v 0.084597 1.080610 -0.004227
v -0.010076 1.304718 0.067622
v 0.437367 1.494619 -0.796302
v -0.003708 1.080093 -0.050075
v 0.090965 0.855985 -0.121925
vn 0.850400 0.203700 0.485200
vn -0.808400 -0.159800 -0.566600
vn -0.887900 0.193500 -0.417300
vn 0.929900 -0.149700 0.335900
vn -0.413700 -0.431700 0.801600
usemtl None
s off
f 11//11 13//11 12//11
f 13//12 15//12 14//12
f 13//13 14//13 12//13
f 13//14 11//14 15//14
f 11//15 12//15 14//15
f 15//15 11//15 14//15
o Cone.009
v 0.020697 2.873263 -0.126027
v -0.073976 3.097371 -0.054178
v 0.373468 3.287272 -0.918102
v -0.067607 2.872746 -0.171875
v 0.027065 2.648638 -0.243725
vn 0.850400 0.203700 0.485200
vn -0.808400 -0.159800 -0.566600
vn -0.887900 0.193500 -0.417300
vn 0.929900 -0.149700 0.335900
vn -0.413600 -0.431700 0.801600
vn -0.413700 -0.431700 0.801600
usemtl None
s off
f 16//16 18//16 17//16
f 18//17 20//17 19//17
f 18//18 19//18 17//18
f 18//19 16//19 20//19
f 16//20 17//20 19//20
f 20//21 16//21 19//21
o Cone.008
v -0.020675 2.102192 -0.054478
v 0.059536 1.887270 -0.162759
v 0.846070 2.489217 -0.203471
v 0.019505 2.054954 0.023331
v -0.060706 2.269876 0.131612
vn -0.303300 0.336000 -0.891700
vn 0.392900 -0.292600 0.871800
vn 0.487600 -0.593800 0.640000
vn -0.398000 0.637300 -0.659900
vn -0.882300 -0.428000 0.195800
usemtl None
s off
f 21//22 23//22 22//22
f 23//23 25//23 24//23
f 23//24 24//24 22//24
f 23//25 21//25 25//25
f 21//26 22//26 24//26
f 25//26 21//26 24//26
o Cone.007
v 0.021307 1.725256 -0.133466
v -0.094461 1.889186 0.021694
v -0.170455 2.306208 -0.874381
v -0.073159 1.694642 -0.139702
v 0.042608 1.530712 -0.294862
vn 0.868200 0.474000 0.147000
vn -0.883500 -0.410900 -0.225000
vn -0.991400 -0.128600 0.024200
vn 0.976100 0.191700 -0.102300
vn 0.150600 -0.621400 0.768900
usemtl None
s off
f 26//27 28//27 27//27
f 28//28 30//28 29//28
f 28//29 29//29 27//29
f 28//30 26//30 30//30
f 26//31 27//31 29//31
f 30//31 26//31 29//31
o Cone.006
v -0.023462 1.725256 0.071955
v 0.092306 1.889186 -0.083204
v 0.168300 2.306208 0.812871
v 0.071004 1.694642 0.078191
v -0.044763 1.530712 0.233351
vn -0.868200 0.474000 -0.147000
vn 0.883500 -0.410900 0.225000
vn 0.991400 -0.128600 -0.024200
vn -0.976100 0.191700 0.102300
vn -0.150600 -0.621400 -0.768900
usemtl None
s off
f 31//32 33//32 32//32
f 33//33 35//33 34//33
f 33//34 34//34 32//34
f 33//35 31//35 35//35
f 31//36 32//36 34//36
f 35//36 31//36 34//36
o Cone.005
v 0.018520 2.102192 -0.007032
v -0.061691 1.887270 0.101248
v -0.848224 2.489217 0.141960
v -0.021659 2.054954 -0.084841
v 0.058551 2.269876 -0.193122
vn 0.303300 0.336000 0.891700
vn -0.392900 -0.292600 -0.871800
vn -0.487600 -0.593800 -0.640000
vn 0.398000 0.637300 0.659900
vn 0.882300 -0.428000 -0.195800
usemtl None
s off
f 36//37 38//37 37//37
f 38//38 40//38 39//38
f 38//39 39//39 37//39
f 38//40 36//40 40//40
f 36//41 37//41 39//41
f 40//41 36//41 39//41
o Cone.004
v -0.022852 2.873263 0.064517
v 0.071821 3.097371 -0.007333
v -0.375623 3.287272 0.856592
v 0.065453 2.872746 0.110365
v -0.029220 2.648638 0.182214
vn -0.850400 0.203700 -0.485200
vn 0.808400 -0.159800 0.566600
vn 0.887900 0.193500 0.417300
vn -0.929900 -0.149700 -0.335900
vn 0.413700 -0.431700 -0.801600
usemtl None
s off
f 41//42 43//42 42//42
f 43//43 45//43 44//43
f 43//44 44//44 42//44
f 43//45 41//45 45//45
f 41//46 42//46 44//46
f 45//46 41//46 44//46
o Cone.003
v -0.086751 1.080610 -0.057283
v 0.007921 1.304718 -0.129133
v -0.439522 1.494619 0.734792
v 0.001553 1.080093 -0.011435
v -0.093120 0.855985 0.060414
vn -0.850400 0.203700 -0.485200
vn 0.808400 -0.159800 0.566600
vn 0.887900 0.193500 0.417300
vn -0.929900 -0.149700 -0.335900
vn 0.413700 -0.431700 -0.801600
usemtl None
s off
f 46//47 48//47 47//47
f 48//48 50//48 49//48
f 48//49 49//49 47//49
f 48//50 46//50 50//50
f 46//51 47//51 49//51
f 50//51 46//51 49//51
o Cone.002
v -0.032458 3.259432 -0.067318
v -0.016385 3.500455 -0.144773
v 0.214742 3.537869 0.818458
v 0.064024 3.266013 -0.090724
v 0.047950 3.024990 -0.013269
vn -0.964400 0.137000 0.226100
vn 0.985500 -0.107900 -0.131100
vn 0.934800 0.266500 -0.234700
vn -0.913800 -0.237400 0.329600
vn -0.207300 -0.286700 -0.935300
usemtl None
s off
f 51//52 53//52 52//52
f 53//53 55//53 54//53
f 53//54 54//54 52//54
f 53//55 51//55 55//55
f 51//56 52//56 54//56
f 55//56 51//56 54//56
o Cone
v -0.032458 0.811454 -0.067318
v -0.016385 1.052477 -0.144773
v 0.214742 1.089892 0.818458
v 0.064024 0.818036 -0.090724
v 0.047950 0.577013 -0.013269
vn -0.964400 0.137000 0.226100
vn 0.985500 -0.107900 -0.131100
vn 0.934800 0.266500 -0.234700
vn -0.913800 -0.237400 0.329600
vn -0.207300 -0.286700 -0.935300
usemtl None
s off
f 56//57 58//57 57//57
f 58//58 60//58 59//58
f 58//59 59//59 57//59
f 58//60 56//60 60//60
f 56//61 57//61 59//61
f 60//61 56//61 59//61
o Cylinder
v 0.019787 0.042921 -0.216996
v 0.117866 4.042922 -0.056014
v 0.119787 0.042921 -0.016996
v 0.039296 4.042922 0.179161
v 0.019787 0.042921 0.183004
v 0.000278 4.042922 0.179161
v -0.080213 0.042921 -0.016996
v -0.078291 4.042922 -0.056014
v 0.045044 0.113762 -0.019474
v -0.150045 0.113762 -0.000260
vn -0.948500 0.003500 0.316900
vn 0.000000 1.000000 0.000000
vn 0.894400 -0.003900 0.447200
vn 0.000000 0.001000 1.000000
vn 0.000000 0.040200 -0.999200
vn 0.000000 -1.000000 0.000000
vn -0.894400 -0.003900 0.447200
vn 0.894400 -0.003900 -0.447200
vn 0.948500 0.003500 0.316900
vn -0.894400 -0.003900 -0.447200
usemtl None
s off
f 68//62 67//62 66//62
f 66//63 64//63 62//63
f 63//64 64//64 65//64
f 64//65 66//65 65//65
f 61//66 68//66 62//66
f 63//67 65//67 67//67
f 67//68 65//68 66//68
f 61//69 62//69 63//69
f 63//70 62//70 64//70
f 61//71 67//71 68//71
f 68//63 66//63 62//63
f 61//67 63//67 67//67
l 70 69
